# xmcd CD database file
#
# Track frame offsets:
#	150
#	27281
#	54111
#	85080
#	107865
#	138939
#	168485
#	194660
#	218616
#	246037
#	273876
#	307413
#
# Disc length: 4362 seconds
#
# Revision: 1
# Processed by: cddbd v1.4PL0 Copyright (c) Steve Scherf et al.
# Submitted via: CDex 1.51
#
DISCID=a511080c
DTITLE=Various Artist - Congano Compilation 6
DYEAR=1900
DGENRE=Rhythmic Soul
TTITLE0=mongawa/viva la fiesta
TTITLE1=terra magica/amazing pipe
TTITLE2=papaya/dieco
TTITLE3=mekka/silent space
TTITLE4=congano/happy vibes
TTITLE5=mongawa/brooklyn styling
TTITLE6=interspace/magic dreams
TTITLE7=mekka/calilope
TTITLE8=bushman/bambadeng
TTITLE9=cosmic vibrations/its a dream
TTITLE10=congano/hijo
TTITLE11=africans vibes/ragga dance man
EXTD=
EXTT0=
EXTT1=
EXTT2=
EXTT3=
EXTT4=
EXTT5=
EXTT6=
EXTT7=
EXTT8=
EXTT9=
EXTT10=
EXTT11=
PLAYORDER=
